<svg width="32" height="32" viewBox="0 0 32 32" fill="none" xmlns="http://www.w3.org/2000/svg">
<rect width="32" height="32" rx="8" fill="#EE4A24"/>
<path fill-rule="evenodd" clip-rule="evenodd" d="M22.7884 8.62187C22.9509 8.45938 23.215 8.45938 23.3775 8.62187C23.54 8.78437 23.54 9.04855 23.3775 9.21105L20.9412 11.6474C23.7905 13.2657 25.8117 15.6247 25.9008 15.7303C26.0325 15.8862 26.0333 16.1137 25.9017 16.2687C25.7092 16.4962 21.1342 21.8329 16 21.8329C14.5671 21.8329 13.1275 21.5103 11.7174 20.8713L9.21093 23.3777C9.13007 23.4586 9.02343 23.4994 8.91675 23.4994C8.81007 23.4994 8.70343 23.4585 8.62175 23.3777C8.45925 23.2152 8.45925 22.951 8.62175 22.7885L13.6434 17.7669L17.7675 13.6427L19.9479 11.4623C19.9539 11.456 19.96 11.4499 19.9663 11.444L22.7884 8.62187ZM20.3283 12.2603L18.6335 13.9551C19.0875 14.5366 19.3334 15.2491 19.3334 15.9995C19.3334 17.8378 17.8384 19.3328 16 19.3328C15.2497 19.3328 14.5373 19.0869 13.9557 18.6329L12.3501 20.2385C13.5585 20.7441 14.7833 20.9996 16 20.9996C20.1208 20.9996 24.03 17.0754 25.0233 15.9996C24.3937 15.3194 22.5976 13.5014 20.3283 12.2603ZM14.5512 18.0374C14.9711 18.3377 15.4729 18.4994 16 18.4994C17.3784 18.4994 18.5 17.3778 18.5 15.9994C18.5 15.4723 18.3378 14.9706 18.0379 14.5508L14.5512 18.0374ZM18.7342 10.6461C17.7859 10.327 16.8659 10.1661 16 10.1661C10.8659 10.1661 6.29088 15.5028 6.09838 15.7303C5.9767 15.8736 5.9667 16.082 6.07506 16.2378C6.13256 16.3203 7.51005 18.2761 9.89755 19.862C9.96837 19.9095 10.0475 19.932 10.1275 19.932C10.2617 19.932 10.3942 19.867 10.4742 19.7445C10.6017 19.5537 10.5492 19.2945 10.3575 19.1678C8.60423 18.002 7.40423 16.5945 6.95505 16.022C7.91423 14.9803 11.8492 10.9995 16 10.9995C16.7759 10.9995 17.6067 11.1462 18.4684 11.4353C18.6867 11.5136 18.9234 11.3928 18.9959 11.1736C19.0692 10.9553 18.9525 10.7195 18.7342 10.6461ZM16.5809 12.7236C16.3917 12.6903 16.1984 12.6661 16.0001 12.6661C14.1618 12.6661 12.6667 14.1611 12.6667 15.9995C12.6667 16.1978 12.6909 16.3911 12.7251 16.5803C12.7609 16.7819 12.9367 16.9244 13.1342 16.9244C13.1584 16.9244 13.1826 16.9228 13.2076 16.9178C13.4334 16.8778 13.5851 16.6611 13.5451 16.4353C13.5192 16.2936 13.5001 16.1495 13.5001 15.9995C13.5001 14.6211 14.6218 13.4995 16.0001 13.4995C16.1501 13.4995 16.2943 13.5186 16.4359 13.5436C16.6576 13.5886 16.8784 13.432 16.9184 13.2061C16.9584 12.9803 16.8068 12.7636 16.5809 12.7236Z" fill="white"/>
</svg>
