<svg width="24" height="24" viewBox="0 0 24 24" fill="none" xmlns="http://www.w3.org/2000/svg">
<path d="M19.4987 17.9161C19.4399 17.878 18.9974 17.568 18.5544 16.6303C17.7408 14.9084 17.57 12.4827 17.57 10.751C17.57 10.7434 17.5698 10.736 17.5695 10.7285C17.5607 8.43984 16.1902 6.46695 14.2292 5.58176V4.22797C14.2292 2.99945 13.2313 2 12.0049 2H11.8205C10.5941 2 9.59624 2.99945 9.59624 4.22797V5.58168C7.62859 6.46973 6.25542 8.45269 6.25542 10.751C6.25542 12.4827 6.08464 14.9083 5.27101 16.6303C4.828 17.568 4.38554 17.8779 4.32671 17.9161C4.07898 18.0308 3.95683 18.2956 4.01382 18.564C4.07136 18.8351 4.32472 19.022 4.6014 19.022H8.89621C8.92019 20.6681 10.2637 22 11.9127 22C13.5617 22 14.9052 20.6681 14.9292 19.022H19.224C19.5007 19.022 19.7541 18.8351 19.8116 18.564C19.8685 18.2956 19.7464 18.0307 19.4987 17.9161ZM10.7682 4.22797C10.7682 3.64668 11.2403 3.17379 11.8206 3.17379H12.0049C12.5852 3.17379 13.0573 3.64668 13.0573 4.22797V5.20129C12.6875 5.12484 12.3046 5.08461 11.9126 5.08461C11.5206 5.08461 11.1379 5.1248 10.7682 5.20117V4.22797H10.7682ZM11.9127 20.8262C10.9099 20.8262 10.0919 20.0209 10.0681 19.022H13.7573C13.7336 20.0208 12.9156 20.8262 11.9127 20.8262ZM14.2721 17.8481C14.272 17.8481 5.93675 17.8481 5.93675 17.8481C6.03812 17.6902 6.14128 17.5113 6.24382 17.3091C7.02914 15.7606 7.42734 13.5541 7.42734 10.751C7.42734 8.27375 9.43941 6.2584 11.9125 6.2584C14.3856 6.2584 16.3977 8.27375 16.3977 10.7529C16.3977 10.7602 16.3978 10.7673 16.3981 10.7745C16.4003 13.5664 16.7985 15.765 17.5816 17.3091C17.6842 17.5113 17.7874 17.6902 17.8887 17.8481H14.2721Z" fill="#4E4E4E"/>
<circle cx="17" cy="6" r="4" fill="#F65454"/>
</svg>
