<svg width="151" height="24" viewBox="0 0 151 24" fill="none" xmlns="http://www.w3.org/2000/svg">
<path d="M12.2825 9.9567C14.5379 9.9567 15.9728 11.2753 16.5872 13.9125C18.4201 14.2293 19.5522 14.5606 19.9835 14.9063C21.5402 16.1542 22.3523 17.6048 22.4198 19.2582C22.3594 20.3881 21.9669 21.3854 21.242 22.2502C20.1547 23.5473 18.1025 23.0923 16.762 22.8134C15.4915 22.549 13.7324 22.306 12.3529 22.2502C9.28685 22.126 7.70293 23.2954 5.5024 23.2405C5.15803 23.1742 4.89293 23.1072 4.7071 23.0394C4.49105 22.9607 4.19591 22.8079 3.82167 22.5812C2.68596 21.6855 2.18021 20.6045 2.30441 19.3381C2.4907 17.4386 3.02891 16.53 3.73113 15.7492C4.43336 14.9684 5.57144 14.1828 7.136 13.966C7.15724 13.9631 7.47014 13.938 8.0747 13.8909C8.6245 11.2681 10.0271 9.9567 12.2825 9.9567ZM97.8317 7.47193C99.451 7.47193 99.451 7.47193 100.549 8.50169C101.818 9.69253 101.818 9.69253 101.818 11.8326C101.818 12.9659 101.818 12.9659 101.546 13.731C101.325 14.4616 101.325 14.4616 100.895 14.9449L101.857 15.8596L100.946 16.8261L99.9379 15.8596L99.8252 15.9274C99.4376 16.1558 99.4376 16.1558 99.1453 16.2565C98.5848 16.4464 98.5848 16.4464 97.8034 16.4464C96.1728 16.4464 96.1728 16.4464 95.1084 15.4569C93.8175 14.266 93.8175 14.266 93.8175 11.9591C93.8175 9.635 93.8175 9.635 95.1424 8.44416C96.2238 7.47193 96.2238 7.47193 97.8317 7.47193ZM85.4739 7.48344C86.7931 7.48344 86.7931 7.48344 87.7245 8.19391C88.6558 8.90439 88.6558 8.90439 88.7011 10.2563H87.0252L87.0174 10.1624C86.9417 9.47105 86.9417 9.47105 86.3685 9.16902C85.9608 8.95617 85.9608 8.95617 85.355 8.95617C84.6813 8.95617 84.6813 8.95617 84.2793 9.2323C83.8773 9.50844 83.8773 9.50844 83.8773 10.0032C83.8773 10.4577 83.8773 10.4577 84.2736 10.682C84.5284 10.8316 84.5284 10.8316 85.3607 11.0329L86.7988 11.3839L86.9415 11.4202C87.7813 11.6436 87.7813 11.6436 88.2255 11.9994C88.9729 12.5977 88.9729 12.5977 88.9729 13.731C88.9729 14.8931 88.9729 14.8931 88.0982 15.6611C87.2234 16.4291 87.2234 16.4291 85.6268 16.4291C83.9962 16.4291 83.9962 16.4291 83.062 15.6726C82.1278 14.9161 82.1278 14.9161 82.1278 13.593H83.7923L83.8097 13.7062C83.8948 14.2028 83.8948 14.2028 84.1037 14.4616C84.5284 14.9851 84.5284 14.9851 85.5588 14.9851C86.176 14.9851 86.176 14.9851 86.561 14.8471C87.2913 14.5824 87.2913 14.5824 87.2913 13.8633C87.2913 13.4434 87.2913 13.4434 86.929 13.2133C86.5666 12.9889 86.5666 12.9889 85.791 12.8163L84.9077 12.615L84.7573 12.5796C83.5762 12.2952 83.5762 12.2952 83.1073 11.9649C82.2637 11.3781 82.2637 11.3781 82.2637 10.1297C82.2637 8.99068 82.2637 8.99068 83.079 8.23706C83.8943 7.48344 83.8943 7.48344 85.4739 7.48344ZM108.785 7.73081V12.9429L108.787 13.0746C108.801 13.8483 108.801 13.8483 108.989 14.22C109.306 14.9334 109.306 14.9334 110.371 14.9334C111.43 14.9334 111.43 14.9334 111.747 14.22C111.95 13.8173 111.95 13.8173 111.95 12.9429V7.73081H113.723V12.9429L113.721 13.1095C113.697 14.3419 113.697 14.3419 113.309 15.0484C112.539 16.4291 112.539 16.4291 110.371 16.4291C108.202 16.4291 108.202 16.4291 107.427 15.0484C107.013 14.2948 107.013 14.2948 107.013 12.9429V7.73081H108.785ZM41.1098 7.73081L41.256 7.73308C42.4107 7.76939 42.4107 7.76939 43.1141 8.38663C43.8615 9.04246 43.8615 9.04246 43.8615 10.4174C43.8615 11.9189 43.8615 11.9189 43.1141 12.5402C42.3668 13.1615 42.3668 13.1615 40.9796 13.1615H39.2075V16.2105H37.475V7.73081H41.1098ZM55.2059 7.73081V9.2323H50.7896V11.0329H54.8435V12.5057H50.7896V14.686H55.4097V16.2105H49.0854V7.73081H55.2059ZM66.6974 7.73081V9.2323H64.2006V16.2105H62.4454V9.2323H59.9372V7.73081H66.6974ZM77.6455 7.73081V9.2323H75.1487V16.2105H73.3935V9.2323H70.8853V7.73081H77.6455ZM123.612 7.73081L126.567 16.2105H124.676L124.138 14.4674H121.064L120.487 16.2105H118.663L121.642 7.73081H123.612ZM135.624 7.73081L135.768 7.73496C136.541 7.76485 136.541 7.76485 136.975 7.94942C137.447 8.15077 137.447 8.15077 137.776 8.54196C138.048 8.86412 138.048 8.86412 138.206 9.25531C138.365 9.64651 138.365 9.64651 138.365 10.147C138.365 10.7511 138.365 10.7511 138.065 11.335C137.764 11.9189 137.764 11.9189 137.074 12.1605C137.651 12.3964 137.651 12.3964 137.892 12.8307C138.133 13.265 138.133 13.265 138.133 14.1567V14.7263L138.133 14.8288C138.137 15.3261 138.137 15.3261 138.178 15.5144C138.246 15.8423 138.246 15.8423 138.495 15.9976V16.2105H136.576L136.55 16.1196C136.491 15.8998 136.491 15.8998 136.462 15.756C136.394 15.3993 136.394 15.3993 136.389 15.0254L136.377 14.2373L136.375 14.1315C136.347 13.4081 136.347 13.4081 136.086 13.1557C135.806 12.8854 135.806 12.8854 135.036 12.8854H133.235V16.2105H131.531V7.73081H135.624ZM149.902 7.73081V9.2323H145.485V11.0329H149.539V12.5057H145.485V14.686H150.105V16.2105H143.781V7.73081H149.902ZM97.8204 8.97342C96.7843 8.97342 96.7843 8.97342 96.1672 9.72129C95.55 10.4692 95.55 10.4692 95.55 11.9591C95.55 13.7023 95.55 13.7023 96.4333 14.4559C97.0051 14.9449 97.0051 14.9449 97.8034 14.9449C98.1035 14.9449 98.1035 14.9449 98.3809 14.8701C98.5338 14.8298 98.5338 14.8298 98.7716 14.7263L97.928 13.9094L98.8282 12.9544L99.6718 13.7713L99.726 13.6551C99.8813 13.3127 99.8813 13.3127 99.9493 13.0464C100.074 12.5805 100.074 12.5805 100.074 11.9591C100.074 10.5324 100.074 10.5324 99.4992 9.75293C98.9245 8.97342 98.9245 8.97342 97.8204 8.97342ZM122.61 9.66952L121.534 13.0062H123.651L122.61 9.66952ZM23.1863 6.41156C24.1398 7.50105 24.3625 9.52706 23.0524 11.342C21.7422 13.1569 20.2707 13.037 19.092 12.144C17.9133 11.2511 17.7888 8.62179 19.092 6.81642C20.3953 5.01104 22.2329 5.32207 23.1863 6.41156ZM3.4617 5.68875C4.8655 5.87265 6.27892 7.25345 6.3793 9.50204C6.47969 11.7506 5.26992 12.6461 3.81258 12.7616C2.35524 12.8771 0.647978 10.9749 0.548125 8.73815C0.448271 6.50139 2.05789 5.50485 3.4617 5.68875ZM40.8324 9.20354H39.2075V11.7003H40.8324C41.4495 11.7003 41.4496 11.7003 41.7921 11.3954C42.1346 11.0905 42.1346 11.0905 42.1346 10.4289C42.1346 9.76732 42.1346 9.76732 41.7921 9.48543C41.4496 9.20354 41.4495 9.20354 40.8324 9.20354ZM135.262 9.20354H133.235V11.4817H135.211C135.8 11.4817 135.8 11.4817 136.094 11.3436C136.615 11.102 136.615 11.102 136.615 10.3886C136.615 9.61774 136.615 9.61774 136.111 9.35311C135.828 9.20354 135.828 9.20354 135.262 9.20354ZM10.2907 1.35632C11.4878 2.13655 12.4784 4.86309 11.7877 7.13417C11.097 9.40525 9.45101 9.63406 8.12944 8.96652C6.80786 8.29897 5.70354 4.85278 6.52708 2.78194C7.35062 0.711095 9.09358 0.57609 10.2907 1.35632ZM17.6486 1.71188C18.7177 3.1213 18.9709 5.90197 17.6486 7.69023C16.3263 9.47848 14.7624 9.47848 13.6515 8.48049C12.5407 7.48251 12.3362 3.86015 13.6515 2.0813C14.9669 0.302447 16.5796 0.302447 17.6486 1.71188Z" fill="white"/>
</svg>
